<svg xmlns="http://www.w3.org/2000/svg" version="1.1" xmlns:xlink="http://www.w3.org/1999/xlink" xmlns:svgjs="http://svgjs.com/svgjs" width="1440" height="560" preserveAspectRatio="none" viewBox="0 0 1440 560"><g mask="url(&quot;#SvgjsMask1127&quot;)" fill="none"><rect width="1440" height="560" x="0" y="0" fill="rgba(22, 114, 167, 1)"></rect><path d="M -98.2403053277963,460 C -26.24,392.2 117.76,132.6 261.7596946722037,121 C 405.76,109.4 477.76,373.6 621.7596946722038,402 C 765.76,430.4 837.76,283 981.7596946722038,263 C 1125.76,243 1197.76,325.6 1341.7596946722038,302 C 1485.76,278.4 1682.11,128 1701.7596946722038,145 C 1721.41,162 1492.35,338.6 1440,387" stroke="rgba(215, 164, 76, 1)" stroke-width="2"></path><path d="M -384.44508240694887,407 C -312.45,372.8 -168.45,239.2 -24.445082406948856,236 C 119.55,232.8 191.55,389.8 335.55491759305113,391 C 479.55,392.2 551.55,262 695.5549175930512,242 C 839.55,222 911.55,302.6 1055.5549175930512,291 C 1199.55,279.4 1338.67,156.8 1415.5549175930512,184 C 1492.44,211.2 1435.11,378.4 1440,427" stroke="rgba(51, 51, 71, 1)" stroke-width="2"></path><path d="M -574.2539893682779,458 C -502.25,401 -358.25,193.8 -214.25398936827793,173 C -70.25,152.2 1.75,339.2 145.74601063172207,354 C 289.75,368.8 361.75,254.8 505.7460106317221,247 C 649.75,239.2 721.75,326.4 865.7460106317221,315 C 1009.75,303.6 1110.9,183.4 1225.7460106317221,190 C 1340.6,196.6 1397.15,316.4 1440,348" stroke="rgba(215, 164, 76, 1)" stroke-width="2"></path><path d="M -304.9065489529543,215 C -232.91,243 -88.91,378.6 55.09345104704569,355 C 199.09,331.4 271.09,90.8 415.0934510470457,97 C 559.09,103.2 631.09,357.4 775.0934510470457,386 C 919.09,414.6 991.09,248.2 1135.0934510470456,240 C 1279.09,231.8 1434.11,373.2 1495.0934510470456,345 C 1556.07,316.8 1451.02,148.2 1440,99" stroke="rgba(51, 51, 71, 1)" stroke-width="2"></path><path d="M -349.68785654262234,470 C -277.69,425 -133.69,255.6 10.312143457377667,245 C 154.31,234.4 226.31,438.4 370.31214345737766,417 C 514.31,395.6 586.31,154 730.3121434573777,138 C 874.31,122 946.31,341 1090.3121434573777,337 C 1234.31,333 1380.37,93 1450.3121434573777,118 C 1520.25,143 1442.06,393.2 1440,462" stroke="rgba(215, 164, 76, 1)" stroke-width="2"></path><path d="M -234.50559434282633,224 C -162.51,246.2 -18.51,344 125.49440565717369,335 C 269.49,326 341.49,185.2 485.4944056571737,179 C 629.49,172.8 701.49,321.8 845.4944056571737,304 C 989.49,286.2 1061.49,63.8 1205.4944056571737,90 C 1349.49,116.2 1518.59,411.6 1565.4944056571737,435 C 1612.4,458.4 1465.1,252.6 1440,207" stroke="rgba(51, 51, 71, 1)" stroke-width="2"></path><path d="M -122.19299830708104,169 C -50.19,193 93.81,303.6 237.80700169291896,289 C 381.81,274.4 453.81,82.4 597.8070016929189,96 C 741.81,109.6 813.81,341.4 957.8070016929189,357 C 1101.81,372.6 1173.81,163 1317.807001692919,174 C 1461.81,185 1653.37,401.4 1677.807001692919,412 C 1702.25,422.6 1487.56,264 1440,227" stroke="rgba(215, 164, 76, 1)" stroke-width="2"></path></g><defs><mask id="SvgjsMask1127"><rect width="1440" height="560" fill="#ffffff"></rect></mask></defs></svg>